<mxfile host="app.diagrams.net" modified="2023-09-13T20:56:03.439Z" agent="Mozilla/5.0 (Windows NT 10.0; Win64; x64) AppleWebKit/537.36 (KHTML, like Gecko) Chrome/116.0.0.0 Safari/537.36" etag="Q_MRCGULJLDhdyAGAXjC" version="21.7.5" type="google">
  <diagram name="Página-1" id="zb7hxWhoZrjHBFJdHMHG">
    <mxGraphModel grid="1" page="1" gridSize="10" guides="1" tooltips="1" connect="1" arrows="1" fold="1" pageScale="1" pageWidth="827" pageHeight="1169" math="0" shadow="0">
      <root>
        <mxCell id="0" />
        <mxCell id="1" parent="0" />
        <mxCell id="rplrZPUwJUEzQRtf83Z_-1" style="edgeStyle=orthogonalEdgeStyle;rounded=0;orthogonalLoop=1;jettySize=auto;html=1;exitX=0.5;exitY=0.5;exitDx=0;exitDy=0;exitPerimeter=0;entryX=0;entryY=0.5;entryDx=0;entryDy=0;" edge="1" parent="1" source="2hfOgBQhIUo8JLlHWB7j-1" target="2hfOgBQhIUo8JLlHWB7j-2">
          <mxGeometry relative="1" as="geometry" />
        </mxCell>
        <mxCell id="NKapOyxIeOymNC-dw__a-17" style="edgeStyle=orthogonalEdgeStyle;rounded=0;orthogonalLoop=1;jettySize=auto;html=1;entryX=0;entryY=0.75;entryDx=0;entryDy=0;entryPerimeter=0;endArrow=none;endFill=0;" edge="1" parent="1" source="2hfOgBQhIUo8JLlHWB7j-1" target="NKapOyxIeOymNC-dw__a-6">
          <mxGeometry relative="1" as="geometry">
            <Array as="points">
              <mxPoint x="210" y="200" />
              <mxPoint x="210" y="460" />
            </Array>
          </mxGeometry>
        </mxCell>
        <mxCell id="NKapOyxIeOymNC-dw__a-29" style="edgeStyle=orthogonalEdgeStyle;rounded=0;orthogonalLoop=1;jettySize=auto;html=1;entryX=0;entryY=0.75;entryDx=0;entryDy=0;entryPerimeter=0;" edge="1" parent="1" source="2hfOgBQhIUo8JLlHWB7j-1" target="NKapOyxIeOymNC-dw__a-26">
          <mxGeometry relative="1" as="geometry">
            <Array as="points">
              <mxPoint x="190" y="570" />
            </Array>
          </mxGeometry>
        </mxCell>
        <mxCell id="2hfOgBQhIUo8JLlHWB7j-1" value="emissor" style="shape=umlActor;verticalLabelPosition=bottom;verticalAlign=top;html=1;outlineConnect=0;" vertex="1" parent="1">
          <mxGeometry x="140" y="100" width="50" height="110" as="geometry" />
        </mxCell>
        <mxCell id="2hfOgBQhIUo8JLlHWB7j-2" value="emitir ata&lt;br&gt;" style="ellipse;whiteSpace=wrap;html=1;" vertex="1" parent="1">
          <mxGeometry x="294" y="100" width="116" height="75" as="geometry" />
        </mxCell>
        <mxCell id="NKapOyxIeOymNC-dw__a-2" style="edgeStyle=orthogonalEdgeStyle;rounded=0;orthogonalLoop=1;jettySize=auto;html=1;entryX=1;entryY=1;entryDx=0;entryDy=0;" edge="1" parent="1" source="rplrZPUwJUEzQRtf83Z_-4" target="2hfOgBQhIUo8JLlHWB7j-2">
          <mxGeometry relative="1" as="geometry">
            <Array as="points">
              <mxPoint x="440" y="200" />
              <mxPoint x="393" y="200" />
            </Array>
          </mxGeometry>
        </mxCell>
        <mxCell id="NKapOyxIeOymNC-dw__a-4" style="edgeStyle=orthogonalEdgeStyle;rounded=0;orthogonalLoop=1;jettySize=auto;html=1;dashed=1;" edge="1" parent="1" source="rplrZPUwJUEzQRtf83Z_-4">
          <mxGeometry relative="1" as="geometry">
            <mxPoint x="380" y="400" as="targetPoint" />
          </mxGeometry>
        </mxCell>
        <mxCell id="NKapOyxIeOymNC-dw__a-11" style="edgeStyle=orthogonalEdgeStyle;rounded=0;orthogonalLoop=1;jettySize=auto;html=1;entryX=0.79;entryY=0.997;entryDx=0;entryDy=0;entryPerimeter=0;dashed=1;" edge="1" parent="1">
          <mxGeometry relative="1" as="geometry">
            <mxPoint x="460.9047252182627" y="310.24" as="sourcePoint" />
            <mxPoint x="574.8" y="210" as="targetPoint" />
            <Array as="points">
              <mxPoint x="575" y="310.24" />
            </Array>
          </mxGeometry>
        </mxCell>
        <mxCell id="rplrZPUwJUEzQRtf83Z_-4" value="ata privada" style="ellipse;whiteSpace=wrap;html=1;" vertex="1" parent="1">
          <mxGeometry x="370" y="255" width="120" height="70" as="geometry" />
        </mxCell>
        <mxCell id="NKapOyxIeOymNC-dw__a-1" style="edgeStyle=orthogonalEdgeStyle;rounded=0;orthogonalLoop=1;jettySize=auto;html=1;" edge="1" parent="1" source="rplrZPUwJUEzQRtf83Z_-5" target="2hfOgBQhIUo8JLlHWB7j-2">
          <mxGeometry relative="1" as="geometry">
            <Array as="points">
              <mxPoint x="270" y="200" />
              <mxPoint x="352" y="200" />
            </Array>
          </mxGeometry>
        </mxCell>
        <mxCell id="NKapOyxIeOymNC-dw__a-3" style="edgeStyle=orthogonalEdgeStyle;rounded=0;orthogonalLoop=1;jettySize=auto;html=1;dashed=1;" edge="1" parent="1" source="rplrZPUwJUEzQRtf83Z_-5">
          <mxGeometry relative="1" as="geometry">
            <mxPoint x="320" y="400" as="targetPoint" />
          </mxGeometry>
        </mxCell>
        <mxCell id="NKapOyxIeOymNC-dw__a-12" style="edgeStyle=orthogonalEdgeStyle;rounded=0;orthogonalLoop=1;jettySize=auto;html=1;entryX=0.06;entryY=0.747;entryDx=0;entryDy=0;entryPerimeter=0;dashed=1;" edge="1" parent="1" source="rplrZPUwJUEzQRtf83Z_-5" target="NKapOyxIeOymNC-dw__a-7">
          <mxGeometry relative="1" as="geometry">
            <mxPoint x="484" y="210" as="targetPoint" />
            <Array as="points">
              <mxPoint x="300" y="240" />
              <mxPoint x="484" y="240" />
              <mxPoint x="484" y="200" />
            </Array>
          </mxGeometry>
        </mxCell>
        <mxCell id="rplrZPUwJUEzQRtf83Z_-5" value="ata publica" style="ellipse;whiteSpace=wrap;html=1;" vertex="1" parent="1">
          <mxGeometry x="240" y="250" width="120" height="80" as="geometry" />
        </mxCell>
        <mxCell id="NKapOyxIeOymNC-dw__a-5" value="&amp;lt;includ&amp;gt;" style="text;html=1;align=center;verticalAlign=middle;resizable=0;points=[];autosize=1;strokeColor=none;fillColor=none;" vertex="1" parent="1">
          <mxGeometry x="317" y="378" width="70" height="30" as="geometry" />
        </mxCell>
        <mxCell id="NKapOyxIeOymNC-dw__a-25" style="edgeStyle=orthogonalEdgeStyle;rounded=0;orthogonalLoop=1;jettySize=auto;html=1;" edge="1" parent="1" source="NKapOyxIeOymNC-dw__a-6" target="NKapOyxIeOymNC-dw__a-26">
          <mxGeometry relative="1" as="geometry">
            <mxPoint x="350" y="550" as="targetPoint" />
          </mxGeometry>
        </mxCell>
        <mxCell id="NKapOyxIeOymNC-dw__a-6" value="aguardando a ata ser emitida" style="ellipse;whiteSpace=wrap;html=1;" vertex="1" parent="1">
          <mxGeometry x="290" y="400" width="120" height="80" as="geometry" />
        </mxCell>
        <mxCell id="NKapOyxIeOymNC-dw__a-9" style="edgeStyle=orthogonalEdgeStyle;rounded=0;orthogonalLoop=1;jettySize=auto;html=1;dashed=1;" edge="1" parent="1" source="NKapOyxIeOymNC-dw__a-7" target="NKapOyxIeOymNC-dw__a-8">
          <mxGeometry relative="1" as="geometry" />
        </mxCell>
        <mxCell id="NKapOyxIeOymNC-dw__a-7" value="email enviado" style="ellipse;whiteSpace=wrap;html=1;" vertex="1" parent="1">
          <mxGeometry x="480" y="140" width="120" height="80" as="geometry" />
        </mxCell>
        <mxCell id="NKapOyxIeOymNC-dw__a-8" value="revisão" style="ellipse;whiteSpace=wrap;html=1;" vertex="1" parent="1">
          <mxGeometry x="540" y="35" width="120" height="80" as="geometry" />
        </mxCell>
        <mxCell id="NKapOyxIeOymNC-dw__a-13" value="&amp;lt;includ&amp;gt;" style="text;html=1;align=center;verticalAlign=middle;resizable=0;points=[];autosize=1;strokeColor=none;fillColor=none;" vertex="1" parent="1">
          <mxGeometry x="540" y="115" width="70" height="30" as="geometry" />
        </mxCell>
        <mxCell id="NKapOyxIeOymNC-dw__a-14" value="&amp;lt;extend&amp;gt;" style="text;html=1;align=center;verticalAlign=middle;resizable=0;points=[];autosize=1;strokeColor=none;fillColor=none;" vertex="1" parent="1">
          <mxGeometry x="345" y="218" width="70" height="30" as="geometry" />
        </mxCell>
        <mxCell id="NKapOyxIeOymNC-dw__a-15" value="&amp;lt;extend&amp;gt;" style="text;html=1;align=center;verticalAlign=middle;resizable=0;points=[];autosize=1;strokeColor=none;fillColor=none;" vertex="1" parent="1">
          <mxGeometry x="500" y="290" width="70" height="30" as="geometry" />
        </mxCell>
        <mxCell id="NKapOyxIeOymNC-dw__a-30" style="edgeStyle=orthogonalEdgeStyle;rounded=0;orthogonalLoop=1;jettySize=auto;html=1;entryX=0;entryY=0.625;entryDx=0;entryDy=0;entryPerimeter=0;" edge="1" parent="1" source="NKapOyxIeOymNC-dw__a-16" target="NKapOyxIeOymNC-dw__a-26">
          <mxGeometry relative="1" as="geometry">
            <Array as="points">
              <mxPoint x="140" y="500" />
              <mxPoint x="160" y="500" />
              <mxPoint x="160" y="540" />
              <mxPoint x="290" y="540" />
            </Array>
          </mxGeometry>
        </mxCell>
        <mxCell id="NKapOyxIeOymNC-dw__a-31" style="edgeStyle=orthogonalEdgeStyle;rounded=0;orthogonalLoop=1;jettySize=auto;html=1;entryX=-0.023;entryY=0.606;entryDx=0;entryDy=0;entryPerimeter=0;endArrow=none;endFill=0;startArrow=classic;startFill=1;" edge="1" parent="1" source="NKapOyxIeOymNC-dw__a-16" target="NKapOyxIeOymNC-dw__a-28">
          <mxGeometry relative="1" as="geometry">
            <Array as="points">
              <mxPoint x="140" y="739" />
            </Array>
          </mxGeometry>
        </mxCell>
        <mxCell id="NKapOyxIeOymNC-dw__a-16" value="funcionarios" style="shape=umlActor;verticalLabelPosition=bottom;verticalAlign=top;html=1;outlineConnect=0;" vertex="1" parent="1">
          <mxGeometry x="120" y="378" width="40" height="112" as="geometry" />
        </mxCell>
        <mxCell id="NKapOyxIeOymNC-dw__a-32" style="edgeStyle=orthogonalEdgeStyle;rounded=0;orthogonalLoop=1;jettySize=auto;html=1;" edge="1" parent="1" source="NKapOyxIeOymNC-dw__a-20" target="NKapOyxIeOymNC-dw__a-33">
          <mxGeometry relative="1" as="geometry">
            <mxPoint x="720" y="550" as="targetPoint" />
          </mxGeometry>
        </mxCell>
        <mxCell id="NKapOyxIeOymNC-dw__a-20" value="administrador" style="shape=umlActor;verticalLabelPosition=bottom;verticalAlign=top;html=1;outlineConnect=0;" vertex="1" parent="1">
          <mxGeometry x="610" y="440" width="40" height="110" as="geometry" />
        </mxCell>
        <mxCell id="NKapOyxIeOymNC-dw__a-24" style="edgeStyle=orthogonalEdgeStyle;rounded=0;orthogonalLoop=1;jettySize=auto;html=1;entryX=0;entryY=0;entryDx=0;entryDy=0;dashed=1;" edge="1" parent="1" source="NKapOyxIeOymNC-dw__a-23" target="2hfOgBQhIUo8JLlHWB7j-2">
          <mxGeometry relative="1" as="geometry" />
        </mxCell>
        <mxCell id="NKapOyxIeOymNC-dw__a-23" value="membros externos" style="ellipse;whiteSpace=wrap;html=1;" vertex="1" parent="1">
          <mxGeometry x="267" width="93" height="60" as="geometry" />
        </mxCell>
        <mxCell id="NKapOyxIeOymNC-dw__a-27" style="edgeStyle=orthogonalEdgeStyle;rounded=0;orthogonalLoop=1;jettySize=auto;html=1;dashed=1;" edge="1" parent="1" source="NKapOyxIeOymNC-dw__a-26" target="NKapOyxIeOymNC-dw__a-28">
          <mxGeometry relative="1" as="geometry">
            <mxPoint x="350" y="650" as="targetPoint" />
          </mxGeometry>
        </mxCell>
        <mxCell id="NKapOyxIeOymNC-dw__a-26" value="revisar propostas" style="ellipse;whiteSpace=wrap;html=1;" vertex="1" parent="1">
          <mxGeometry x="290" y="510" width="120" height="80" as="geometry" />
        </mxCell>
        <mxCell id="NKapOyxIeOymNC-dw__a-28" value="ata emitida" style="ellipse;whiteSpace=wrap;html=1;" vertex="1" parent="1">
          <mxGeometry x="290" y="690" width="120" height="80" as="geometry" />
        </mxCell>
        <mxCell id="NKapOyxIeOymNC-dw__a-33" value="emitir relatorio" style="ellipse;whiteSpace=wrap;html=1;" vertex="1" parent="1">
          <mxGeometry x="690" y="455" width="120" height="80" as="geometry" />
        </mxCell>
        <mxCell id="NKapOyxIeOymNC-dw__a-34" value="&amp;lt;includ&amp;gt;" style="text;html=1;align=center;verticalAlign=middle;resizable=0;points=[];autosize=1;strokeColor=none;fillColor=none;rotation=90;" vertex="1" parent="1">
          <mxGeometry x="325" y="618" width="70" height="30" as="geometry" />
        </mxCell>
      </root>
    </mxGraphModel>
  </diagram>
</mxfile>
